<svg width="654" height="179" viewBox="0 0 654 179" fill="none" xmlns="http://www.w3.org/2000/svg">
<g clip-path="url(#clip0_7_2)">
<path d="M57.699 133.204C55.1397 132.971 52.5805 132.971 50.2539 132.739C43.7395 132.042 37.6904 130.182 31.874 127.392C19.3105 121.58 10.2369 112.282 4.65308 99.7285C0.930562 91.3597 -0.465382 82.5259 -6.74054e-05 73.4597C0.465247 65.3233 2.79182 57.4195 6.28168 50.213C7.21231 48.3532 8.60826 47.4233 10.7022 47.4233C19.0778 46.9584 27.2208 48.1208 35.1312 51.3753C40.2497 53.235 44.9028 55.7922 49.0906 59.0467C49.3233 59.2792 49.556 59.5117 50.0213 59.7441C49.7886 58.1169 49.556 56.722 49.556 55.3272C48.3927 39.7519 53.0458 26.5013 63.7481 15.1104C70.2625 8.13633 78.4055 3.25452 87.4791 0.232439C89.1077 -0.232496 90.7363 -2.84864e-05 91.8996 1.16231C101.904 10.2285 108.186 21.1545 110.28 34.4052C112.141 46.9584 109.814 58.8143 102.835 69.5078C102.602 69.7402 102.369 70.2052 102.369 70.4376C104.23 70.2052 105.859 69.7402 107.72 69.5078C120.051 67.648 131.684 69.5078 142.852 74.8545C145.178 76.0169 146.341 77.4117 146.341 79.9688C146.807 99.0311 140.292 115.071 125.635 127.392C117.725 134.134 108.186 138.086 97.9487 139.48C87.2465 140.875 76.7769 139.48 67.0053 135.064C66.7726 135.064 66.54 134.831 66.3073 134.831C65.842 136.691 65.6093 138.318 65.144 139.945C62.8174 151.336 60.4909 162.495 58.1643 173.886C57.699 175.978 56.5357 177.373 54.6744 177.605C51.6499 178.07 49.0906 175.745 49.556 172.956C50.0213 170.166 50.7192 167.377 51.1846 164.587C53.2785 154.126 55.6051 143.665 57.699 133.436C57.699 133.204 57.699 133.204 57.699 133.204Z" fill="#90C6A9"/>
<path d="M142.154 132.042C142.154 137.853 139.827 143.2 135.872 147.384L104.696 178.303C104.23 178.768 103.765 179 103.067 179C102.602 179 101.904 178.768 101.439 178.303L70.7278 147.384C66.54 143.2 64.446 137.853 64.446 132.042C64.446 126.23 66.7726 120.883 70.7278 116.699C74.683 112.747 80.2668 110.422 85.8505 110.422C91.667 110.422 97.0181 112.747 101.206 116.699L103.3 118.791L105.394 116.699C109.582 112.514 114.933 110.422 120.749 110.422C126.566 110.422 131.917 112.747 136.105 116.699C140.06 120.883 142.154 126.462 142.154 132.042Z" fill="#E05955"/>
<path d="M197.991 125.765C196.13 125.765 194.734 124.37 194.734 122.51L194.967 93.9168L194.501 60.674C194.501 59.0467 195.897 57.4194 197.526 57.4194C199.853 57.187 201.714 57.1869 203.575 56.9545C206.367 56.722 209.159 56.4895 212.183 56.4895C215.208 56.2571 218.233 56.2571 220.792 56.2571C227.771 56.2571 233.355 58.3493 237.078 62.3012C241.033 66.2532 242.894 72.2973 242.894 80.2012C242.894 85.0831 242.196 89.2675 240.8 92.522C239.404 95.7766 237.543 98.3337 235.217 100.193C232.89 102.053 230.331 103.448 227.306 104.145C224.514 104.843 221.49 105.308 218.465 105.308C216.837 105.308 214.975 105.308 212.649 105.075C210.787 105.075 209.159 106.47 209.159 108.33V122.51C209.159 124.37 207.763 125.765 205.902 125.765H197.991ZM219.396 92.9869C221.024 92.9869 222.188 92.7545 223.351 92.522C224.282 92.2895 224.747 92.0571 225.212 91.8246C225.445 91.5921 225.678 91.5921 225.678 91.3597C226.376 90.6623 226.608 89.4999 227.074 87.6402C227.306 85.7805 227.539 82.9908 227.539 79.2714C227.539 76.7142 227.539 74.622 227.306 73.4597C227.073 72.0649 226.841 71.3675 226.376 70.9025C226.143 70.4376 225.678 69.9727 225.445 69.7402C224.98 69.2753 224.282 69.0428 223.118 68.8103C221.955 68.5779 220.559 68.3454 218.465 68.3454C217.069 68.3454 215.441 68.3454 214.045 68.5779C213.579 68.5779 213.347 68.5779 212.881 68.5779C211.253 68.8103 209.857 70.2051 209.857 71.8324V89.4999C209.857 91.1272 211.02 92.522 212.881 92.7545C215.208 92.987 217.535 92.9869 219.396 92.9869Z" fill="#E05955"/>
<path d="M254.062 122.51V55.0948C254.062 53.235 255.458 51.8402 257.319 51.8402H265.927C267.789 51.8402 269.184 53.235 269.184 55.0948V122.51C269.184 124.37 267.789 125.765 265.927 125.765H257.319C255.69 125.765 254.062 124.37 254.062 122.51Z" fill="#E05955"/>
<path d="M298.034 126.927C295.01 126.927 292.218 126.23 289.658 124.835C287.099 123.44 285.238 121.348 283.609 118.558C282.213 115.769 281.283 112.514 281.283 108.562C281.283 103.913 282.446 100.193 284.54 97.4038C286.634 94.6142 289.658 92.7545 293.614 91.5922C297.569 90.4298 301.989 89.7324 307.34 89.7324H311.296C313.157 89.7324 314.553 88.1051 314.553 86.2454C314.553 85.3155 314.32 84.3857 314.32 83.6883C314.087 82.5259 313.855 81.5961 313.389 81.1311C313.157 80.6662 312.691 80.2012 311.994 79.9688C311.296 79.5038 309.667 79.2714 307.573 79.2714C305.246 79.2714 302.92 79.5038 300.361 79.9688C297.801 80.4337 295.475 80.8986 293.381 81.3636C291.985 81.596 290.589 82.061 289.193 82.5259C287.564 82.9909 285.703 82.061 285.238 80.2012L283.842 75.3194C283.377 73.6922 284.307 71.8324 285.936 71.3675C287.564 70.9025 288.96 70.2051 290.589 69.9727C292.916 69.2753 295.475 68.8103 298.499 68.1129C301.524 67.648 304.548 67.4155 307.806 67.4155C313.389 67.4155 317.81 68.3454 321.067 69.9727C324.324 71.5999 326.651 74.1571 328.047 77.4116C329.443 80.6662 330.141 84.3857 330.141 89.035V122.743C330.141 124.603 328.745 125.997 326.884 125.997H322.928C321.532 125.997 320.136 125.067 319.904 123.673L318.741 119.721H318.043C315.716 121.348 313.622 122.51 311.761 123.44C309.9 124.37 307.806 125.3 305.479 125.997C302.92 126.695 300.593 126.927 298.034 126.927ZM302.455 114.606C304.316 114.606 306.177 114.374 308.038 113.677C309.434 113.212 311.063 112.514 312.924 111.817C314.087 111.352 314.785 110.19 314.785 108.795V103.68C314.785 102.053 313.389 100.658 311.761 100.426C309.9 100.193 308.038 100.193 306.41 100.193C302.222 100.193 299.43 100.658 298.499 101.588C298.034 102.053 297.569 102.751 297.336 103.68C297.103 104.61 296.871 106.005 296.871 107.632C296.871 109.957 297.336 111.817 298.267 112.979C298.965 114.141 300.361 114.606 302.455 114.606Z" fill="#E05955"/>
<path d="M344.565 122.51V71.8324C344.565 69.9727 345.961 68.5779 347.823 68.5779H351.778C353.174 68.5779 354.57 69.5077 354.802 70.9025L355.966 74.3896H356.664C358.06 73.6922 359.456 72.7623 360.851 72.0649C362.48 71.3675 364.109 70.4376 365.737 69.7402C367.598 69.0428 369.227 68.5779 371.321 68.1129C373.182 67.648 375.276 67.4155 377.37 67.4155C381.325 67.4155 384.35 68.3454 386.444 70.2051C388.538 72.0649 389.934 74.622 390.632 77.6441C391.33 80.8986 391.795 84.3857 391.795 88.3376V122.51C391.795 124.37 390.399 125.765 388.538 125.765H379.929C378.068 125.765 376.672 124.37 376.672 122.51V91.1272C376.672 88.5701 376.672 86.4779 376.439 85.0831C376.207 83.6883 375.974 82.7584 375.276 81.8285C374.811 81.3636 374.346 80.8986 373.648 80.6662C372.95 80.4337 372.252 80.4337 371.321 80.4337C370.158 80.4337 368.762 80.6662 367.366 81.1311C365.97 81.5961 364.574 82.061 363.178 82.5259C362.48 82.7584 361.782 83.2233 361.084 83.4558C360.153 83.9207 359.455 85.0831 359.455 86.2454V122.278C359.455 124.138 358.06 125.532 356.198 125.532H347.59C345.961 125.765 344.565 124.37 344.565 122.51Z" fill="#E05955"/>
<path d="M423.436 126.927C419.947 126.927 417.155 126.462 414.595 125.3C412.269 124.37 410.408 122.278 409.012 119.256C407.848 116.234 407.15 112.049 407.15 106.47V86.0129C407.15 84.1532 405.754 82.7584 403.893 82.7584H403.661C401.799 82.7584 400.403 81.3636 400.403 79.5039V76.0168C400.403 74.3896 401.567 73.2272 402.963 72.7623L405.289 72.2974C406.685 72.0649 407.616 70.9025 407.848 69.7402L409.244 61.1389C409.477 59.5116 410.873 58.3493 412.501 58.3493H418.783C420.645 58.3493 422.04 59.7441 422.04 61.6038V68.1129C422.04 69.9727 423.436 71.3675 425.298 71.3675H430.416C432.277 71.3675 433.673 72.7623 433.673 74.622V79.7363C433.673 81.5961 432.277 82.9909 430.416 82.9909H425.065C423.204 82.9909 421.808 84.3857 421.808 86.2454V106.935C421.808 109.027 422.04 110.654 422.273 111.817C422.506 112.979 422.971 113.444 423.669 113.677C424.367 113.909 425.065 114.142 425.996 114.142C426.926 114.142 428.09 114.142 429.253 113.909C429.485 113.909 429.718 113.909 429.951 113.909C431.812 113.677 433.441 115.304 433.441 117.164V123.208C433.441 124.835 432.277 126.23 430.649 126.462C428.322 126.927 425.53 126.927 423.436 126.927Z" fill="#E05955"/>
<path d="M470.2 126.927C464.849 126.927 459.963 125.765 455.776 123.44C451.588 121.116 448.331 117.396 445.771 112.282C443.445 107.168 442.049 100.426 442.049 92.0571C442.049 84.6182 442.747 78.574 444.143 73.6922C445.539 69.0428 447.633 65.3234 450.425 62.7662C452.984 60.2091 456.241 58.3493 459.731 57.4195C463.221 56.4896 467.176 56.0247 471.364 56.0247C472.992 56.0247 475.086 56.0247 477.645 56.2571C480.205 56.4896 482.531 56.7221 485.09 57.187C486.254 57.4195 487.184 57.4195 488.348 57.6519C489.976 57.8844 491.14 59.5117 490.907 61.3714L489.976 67.648C489.744 69.2753 488.115 70.6701 486.486 70.4376C486.254 70.4376 486.021 70.4376 486.021 70.4376C484.392 70.2052 482.764 70.2052 480.67 69.9727C478.809 69.7402 476.947 69.7402 475.551 69.5078C473.923 69.5078 472.76 69.2753 472.062 69.2753C469.502 69.2753 467.408 69.5078 465.78 69.7402C464.151 69.9727 463.221 70.4376 462.523 71.135C461.592 71.8325 460.894 72.9948 460.196 74.3896C459.498 76.0169 459.033 78.1091 458.568 81.1312C458.102 83.9208 457.87 87.6402 457.87 92.2896C457.87 98.1013 458.335 102.518 459.498 105.773C460.429 109.027 461.592 111.119 462.755 112.049C463.453 112.514 464.384 112.979 465.547 113.212C466.711 113.444 468.106 113.677 469.735 113.677C471.829 113.677 473.923 113.444 476.249 112.979C478.576 112.514 480.67 111.817 482.764 111.119C483.927 110.655 485.323 110.19 486.719 109.725C488.348 109.027 490.209 109.957 490.907 111.584L493.233 117.396C493.699 119.023 493.233 120.651 491.605 121.348C490.209 122.045 488.813 122.743 487.417 123.208C485.323 124.138 482.764 124.835 479.972 125.532C476.715 126.695 473.69 126.927 470.2 126.927Z" fill="#E05955"/>
<path d="M518.361 126.927C515.336 126.927 512.544 126.23 509.985 124.835C507.426 123.44 505.565 121.348 503.936 118.558C502.54 115.769 501.609 112.514 501.609 108.562C501.609 103.913 502.773 100.194 504.867 97.4039C506.96 94.6143 509.985 92.7546 513.94 91.5922C517.895 90.4299 522.316 89.7325 527.667 89.7325H531.622C533.483 89.7325 534.879 88.1052 534.879 86.2455C534.879 85.3156 534.647 84.3857 534.647 83.6883C534.414 82.526 534.181 81.5961 533.716 81.1312C533.483 80.6662 533.018 80.2013 532.32 79.9688C531.622 79.5039 529.994 79.2714 527.9 79.2714C525.573 79.2714 523.247 79.5039 520.687 79.9688C518.128 80.4338 515.801 80.8987 513.708 81.3636C512.312 81.5961 510.916 82.061 509.52 82.526C507.891 82.9909 506.03 82.061 505.565 80.2013L504.169 75.3195C503.703 73.6922 504.634 71.8325 506.263 71.3675C507.891 70.9026 509.287 70.2052 510.916 69.9727C513.242 69.2753 515.801 68.8104 518.826 68.113C521.851 67.6481 524.875 67.4156 528.132 67.4156C533.716 67.4156 538.137 68.3455 541.394 69.9727C544.651 71.6 546.978 74.1571 548.373 77.4117C549.769 80.6662 550.467 84.3857 550.467 89.0351V122.743C550.467 124.603 549.071 125.997 547.21 125.997H543.255C541.859 125.997 540.463 125.068 540.23 123.673L539.067 119.721H538.369C536.043 121.348 533.949 122.51 532.087 123.44C530.226 124.37 528.132 125.3 525.806 125.997C523.247 126.695 520.92 126.927 518.361 126.927ZM522.781 114.606C524.642 114.606 526.504 114.374 528.365 113.677C529.761 113.212 531.39 112.514 533.251 111.817C534.414 111.352 535.112 110.19 535.112 108.795V103.681C535.112 102.053 533.716 100.658 532.087 100.426C530.226 100.194 528.365 100.194 526.736 100.194C522.549 100.194 519.757 100.658 518.826 101.588C518.361 102.053 517.895 102.751 517.663 103.681C517.43 104.61 517.197 106.005 517.197 107.632C517.197 109.957 517.663 111.817 518.593 112.979C519.291 114.142 520.92 114.606 522.781 114.606Z" fill="#E05955"/>
<path d="M565.125 122.51V71.8325C565.125 69.9727 566.52 68.5779 568.382 68.5779H572.104C573.5 68.5779 574.663 69.5078 575.129 70.9026L576.292 74.6221H576.99C578.851 73.2273 580.48 71.8325 582.109 70.9026C583.737 69.9727 585.366 69.0428 587.227 68.3454C589.088 67.648 590.717 67.1831 592.578 67.1831C593.741 67.1831 594.905 67.1831 596.068 67.4156C597.697 67.648 598.86 69.2753 598.86 70.9026L598.162 78.1091C597.929 79.7363 596.533 81.1312 594.672 81.1312C593.741 81.1312 593.043 81.1312 592.345 81.1312C590.717 81.1312 589.088 81.3636 587.692 81.5961C586.064 82.061 584.9 82.2935 583.504 82.9909C583.039 83.2234 582.574 83.4558 581.876 83.6883C580.713 84.1532 580.015 85.3156 580.015 86.4779V122.51C580.015 124.37 578.619 125.765 576.757 125.765H568.149C566.52 125.765 565.125 124.37 565.125 122.51Z" fill="#E05955"/>
<path d="M654 94.3818C654 87.6402 653.069 82.2935 651.208 78.3415C649.347 74.3896 646.787 71.6 643.065 69.7402C639.575 67.8805 635.387 67.1831 630.269 67.1831C625.383 67.1831 620.963 68.113 617.007 69.9727C613.052 71.8325 609.795 74.8545 607.468 79.2714C605.142 83.6883 603.979 89.5 603.979 97.1714C603.979 104.378 605.142 110.422 607.236 114.839C609.33 119.256 612.587 122.51 616.542 124.37C620.497 126.23 625.15 127.392 630.501 127.392C633.991 127.392 637.481 126.927 640.506 126.23C643.53 125.532 646.322 124.603 648.649 123.905C649.114 123.673 649.579 123.44 650.045 123.44C651.673 122.743 652.371 121.116 651.906 119.488L650.277 114.374C649.812 112.747 647.951 111.817 646.322 112.282C644.926 112.747 643.065 113.212 640.971 113.677C638.877 114.142 636.783 114.606 634.689 115.071C632.595 115.536 630.501 115.536 628.873 115.536C627.244 115.536 625.848 115.304 624.918 115.071C623.987 114.839 623.056 114.374 622.358 113.677C621.66 112.979 620.963 112.049 620.497 110.887C620.032 109.725 619.799 108.33 619.567 106.703C619.567 106.47 619.567 106.47 619.567 106.238C619.334 104.378 620.963 102.751 622.824 102.751H650.743C652.604 102.751 654 101.356 654 99.4961V94.3818ZM622.824 91.5922C620.73 91.5922 619.334 89.9649 619.567 87.8727C620.032 84.8506 620.73 82.9909 621.893 81.8286C622.591 81.1312 623.522 80.4338 624.685 79.9688C625.848 79.5039 627.71 79.2714 630.269 79.2714C632.363 79.2714 633.759 79.5039 634.689 79.9688C635.387 80.4338 636.085 80.6662 636.551 81.1312C636.783 81.3636 636.783 81.3636 637.016 81.5961C637.481 82.526 637.946 83.6883 638.179 85.548C638.179 86.2454 638.412 86.9428 638.412 87.8727C638.644 89.7325 637.016 91.3597 635.155 91.3597L622.824 91.5922Z" fill="#E05955"/>
</g>
<defs>
<clipPath id="clip0_7_2">
<rect width="654" height="179" fill="white"/>
</clipPath>
</defs>
</svg>
