<svg width="195" height="239" viewBox="0 0 195 239" fill="none" xmlns="http://www.w3.org/2000/svg">
<g clip-path="url(#clip0_7_20)">
<path d="M76.7144 178.033C73.4198 177.827 70.1252 177.827 66.8306 177.415C58.1822 176.59 50.1516 174.115 42.3269 170.403C25.8538 162.567 13.7049 150.195 6.29205 133.491C1.35013 122.356 -0.503093 110.602 0.114647 98.4354C0.732388 87.5062 3.61518 77.1955 8.5571 67.2974C9.79258 64.8228 11.6458 63.7918 14.5286 63.5855C25.8538 62.9669 36.5613 64.6166 47.0629 68.7408C53.6521 71.4216 60.0355 74.721 65.5951 79.0515C66.0069 79.2577 66.4188 79.6701 66.8306 79.8763C66.6247 77.8142 66.4188 75.9583 66.2129 74.1024C64.5656 53.4811 70.9489 35.5407 84.951 20.281C93.8053 10.7952 104.307 4.40263 116.662 0.278387C118.721 -0.34025 120.78 0.0721743 122.427 1.51566C135.812 13.476 144.254 28.3233 146.725 46.0575C149.196 62.7607 145.901 78.4328 136.841 92.8677C136.635 93.2801 136.429 93.6925 136.018 94.1049C138.488 93.6925 140.754 93.0739 143.224 92.8677C159.492 90.1869 175.141 92.8677 189.967 99.8789C193.056 101.322 194.497 103.384 194.703 106.89C195.321 132.46 186.672 153.7 167.11 170.403C156.609 179.683 144.048 185.045 130.252 186.694C116.044 188.55 102.248 186.694 89.0692 180.714C88.8633 180.508 88.4515 180.508 88.0397 180.302C87.6279 182.57 87.0101 184.838 86.5983 187.107C83.5096 202.16 80.215 217.214 77.1263 232.473C76.5085 235.36 74.8612 237.01 72.3903 237.629C68.4779 238.454 64.9774 235.154 65.5951 231.236C66.2129 227.524 67.0365 223.812 67.8602 220.101C70.743 206.284 73.6257 192.262 76.5085 178.446C76.7144 178.446 76.7144 178.24 76.7144 178.033Z" fill="#90C6A9"/>
<path d="M189.555 176.796C189.555 184.426 186.466 191.643 181.112 197.211L139.724 238.454C139.106 239.072 138.282 239.278 137.665 239.278C136.841 239.278 136.223 239.072 135.606 238.454L94.0111 197.005C88.6573 191.643 85.5686 184.426 85.5686 176.59C85.5686 168.96 88.4514 161.743 94.0111 156.175C99.3648 150.813 106.572 147.72 114.396 147.72C122.015 147.72 129.222 150.813 134.782 156.175L137.665 159.062L140.547 156.175C145.901 150.813 153.108 147.72 160.933 147.72C168.552 147.72 175.759 150.607 181.318 156.175C186.878 161.743 189.555 169.166 189.555 176.796Z" fill="#E05955"/>
</g>
<defs>
<clipPath id="clip0_7_20">
<rect width="195" height="239" fill="white"/>
</clipPath>
</defs>
</svg>
