<svg width="233" height="232" viewBox="0 0 233 232" fill="none" xmlns="http://www.w3.org/2000/svg">
<mask id="mask0_6_138" style="mask-type:alpha" maskUnits="userSpaceOnUse" x="0" y="0" width="233" height="232">
<rect x="0.859131" width="232" height="232" fill="#1B311E"/>
</mask>
<g mask="url(#mask0_6_138)">
<path d="M116.859 203C106.226 203 96.4787 200.342 87.6175 195.025C78.7564 189.708 71.7481 182.7 66.5925 174H48.9509C46.212 174 43.9564 173.074 42.1842 171.221C40.412 169.368 39.5259 167.072 39.5259 164.333C39.5259 161.594 40.4523 159.299 42.305 157.446C44.1578 155.593 46.4537 154.667 49.1925 154.667H59.8259C59.3425 150.961 59.0606 147.779 58.98 145.121C58.8995 142.462 58.8592 139.2 58.8592 135.333H48.9509C46.212 135.333 43.9564 134.407 42.1842 132.554C40.412 130.701 39.5259 128.405 39.5259 125.667C39.5259 122.928 40.4523 120.632 42.305 118.779C44.1578 116.926 46.4537 116 49.1925 116H58.8592C58.8592 111.65 58.8995 108.065 58.98 105.246C59.0606 102.426 59.3425 99.5666 59.8259 96.6666H48.9509C46.212 96.6666 43.9564 95.7402 42.1842 93.8874C40.412 92.0347 39.5259 89.7388 39.5259 86.9999C39.5259 84.261 40.4523 81.9652 42.305 80.1124C44.1578 78.2597 46.4537 77.3333 49.1925 77.3333H66.5925C68.8481 73.4666 71.3856 69.9624 74.205 66.8208C77.0245 63.6791 80.287 60.8999 83.9925 58.4833L75.0509 49.2999C73.2787 47.3666 72.4328 45.0708 72.5134 42.4124C72.5939 39.7541 73.5203 37.5388 75.2925 35.7666C77.0648 33.9944 79.3203 33.1083 82.0592 33.1083C84.7981 33.1083 87.0537 33.9944 88.8259 35.7666L102.843 49.7833C106.548 48.4944 111.14 47.8499 116.618 47.8499C122.095 47.8499 126.687 48.4944 130.393 49.7833L144.893 35.5249C146.826 33.7527 149.122 32.9069 151.78 32.9874C154.438 33.068 156.654 33.9944 158.426 35.7666C160.198 37.5388 161.084 39.7944 161.084 42.5333C161.084 45.2722 160.198 47.5277 158.426 49.2999L149.243 58.4833C152.948 60.8999 156.291 63.6791 159.272 66.8208C162.252 69.9624 164.87 73.4666 167.126 77.3333H184.768C187.506 77.3333 189.762 78.2597 191.534 80.1124C193.306 81.9652 194.193 84.261 194.193 86.9999C194.193 89.7388 193.266 92.0347 191.413 93.8874C189.561 95.7402 187.265 96.6666 184.526 96.6666H173.893C174.376 100.372 174.658 103.433 174.738 105.85C174.819 108.267 174.859 111.65 174.859 116H184.768C187.506 116 189.762 116.926 191.534 118.779C193.306 120.632 194.193 122.928 194.193 125.667C194.193 128.405 193.266 130.701 191.413 132.554C189.561 134.407 187.265 135.333 184.526 135.333H174.859C174.859 139.2 174.819 142.462 174.738 145.121C174.658 147.779 174.376 150.961 173.893 154.667H184.768C187.506 154.667 189.762 155.593 191.534 157.446C193.306 159.299 194.193 161.594 194.193 164.333C194.193 167.072 193.266 169.368 191.413 171.221C189.561 173.074 187.265 174 184.526 174H167.126C161.97 182.7 154.962 189.708 146.101 195.025C137.24 200.342 127.493 203 116.859 203ZM107.193 154.667H126.768C129.506 154.667 131.762 153.74 133.534 151.887C135.306 150.035 136.193 147.739 136.193 145C136.193 142.261 135.266 139.965 133.413 138.112C131.561 136.26 129.265 135.333 126.526 135.333H106.951C104.212 135.333 101.956 136.26 100.184 138.112C98.412 139.965 97.5259 142.261 97.5259 145C97.5259 147.739 98.4523 150.035 100.305 151.887C102.158 153.74 104.454 154.667 107.193 154.667ZM107.193 116H126.768C129.506 116 131.762 115.074 133.534 113.221C135.306 111.368 136.193 109.072 136.193 106.333C136.193 103.594 135.266 101.299 133.413 99.4458C131.561 97.593 129.265 96.6666 126.526 96.6666H106.951C104.212 96.6666 101.956 97.593 100.184 99.4458C98.412 101.299 97.5259 103.594 97.5259 106.333C97.5259 109.072 98.4523 111.368 100.305 113.221C102.158 115.074 104.454 116 107.193 116Z" fill="#1B311E"/>
</g>
</svg>
