<svg width="233" height="232" viewBox="0 0 233 232" fill="none" xmlns="http://www.w3.org/2000/svg">
<mask id="mask0_7_30" style="mask-type:alpha" maskUnits="userSpaceOnUse" x="0" y="0" width="233" height="232">
<rect x="0.231934" width="231.896" height="231.896" fill="#1B311E"/>
</mask>
<g mask="url(#mask0_7_30)">
<path d="M38.8812 193.246C33.5669 193.246 29.0175 191.354 25.2331 187.57C21.4487 183.785 19.5565 179.236 19.5565 173.922V57.9739C19.5565 52.6597 21.4487 48.1103 25.2331 44.3259C29.0175 40.5415 33.5669 38.6493 38.8812 38.6493H193.478C198.793 38.6493 203.342 40.5415 207.126 44.3259C210.911 48.1103 212.803 52.6597 212.803 57.9739V133.34C208.455 130.763 203.825 128.831 198.913 127.543C194.002 126.254 188.969 125.61 183.816 125.61C167.712 125.61 154.024 131.247 142.751 142.519C131.478 153.792 125.842 167.48 125.842 183.584V193.246H38.8812ZM116.18 106.286L51.4422 65.7038C48.3824 63.9324 45.524 63.8921 42.8669 65.583C40.2097 67.2739 38.8812 69.6492 38.8812 72.709C38.8812 74.3194 39.2032 75.6882 39.8474 76.8154C40.4915 77.9427 41.4578 78.909 42.7461 79.7141L111.107 122.47C112.717 123.436 114.408 123.919 116.18 123.919C117.951 123.919 119.642 123.436 121.252 122.47L189.613 79.7141C190.902 78.909 191.868 77.9427 192.512 76.8154C193.156 75.6882 193.478 74.3194 193.478 72.709C193.478 69.8103 192.19 67.4752 189.613 65.7038C187.037 63.9324 184.138 63.9324 180.917 65.7038L116.18 106.286ZM185.507 193.246H154.829C152.091 193.246 149.797 192.32 147.945 190.468C146.093 188.617 145.167 186.322 145.167 183.584C145.167 180.846 146.093 178.552 147.945 176.7C149.797 174.848 152.091 173.922 154.829 173.922H185.507L176.811 165.226C174.878 163.293 173.952 161.039 174.033 158.462C174.113 155.885 175.12 153.631 177.052 151.698C178.985 149.927 181.239 149.001 183.816 148.921C186.393 148.84 188.647 149.766 190.58 151.698L215.702 176.82C217.634 178.753 218.6 181.007 218.6 183.584C218.6 186.161 217.634 188.415 215.702 190.348L190.58 215.47C188.808 217.241 186.594 218.167 183.937 218.248C181.28 218.328 178.985 217.402 177.052 215.47C175.281 213.698 174.395 211.444 174.395 208.706C174.395 205.968 175.281 203.714 177.052 201.942L185.507 193.246Z" fill="#1B311E"/>
</g>
</svg>
