<svg width="233" height="233" viewBox="0 0 233 233" fill="none" xmlns="http://www.w3.org/2000/svg">
<mask id="mask0_6_126" style="mask-type:alpha" maskUnits="userSpaceOnUse" x="0" y="0" width="233" height="233">
<rect x="0.231934" width="232.164" height="232.164" fill="#1B311E"/>
</mask>
<g mask="url(#mask0_6_126)">
<path d="M82.9402 212.817C78.4259 212.817 74.4758 211.447 71.0901 208.706C67.7044 205.965 65.4472 202.418 64.3187 198.065L53.436 154.776H179.192L168.309 198.065C167.18 202.418 164.923 205.965 161.537 208.706C158.152 211.447 154.202 212.817 149.687 212.817H82.9402ZM65.5278 19.8307C79.8769 21.6042 91.9285 27.9323 101.683 38.815C111.437 49.6977 116.314 62.5554 116.314 77.3881C116.314 62.5554 121.191 49.6977 130.945 38.815C140.699 27.9323 152.751 21.6042 167.1 19.8307C169.034 19.5083 170.727 20.0726 172.178 21.5236C173.629 22.9746 174.194 24.6675 173.871 26.6022C172.259 39.339 167.019 50.262 158.152 59.3712C149.284 68.4804 138.563 74.1636 125.987 76.4208V96.7351H193.702C196.443 96.7351 198.74 97.6622 200.594 99.5163C202.448 101.37 203.375 103.668 203.375 106.409V125.756C203.375 131.076 201.481 135.631 197.692 139.419C193.903 143.208 189.349 145.103 184.028 145.103H48.5992C43.2788 145.103 38.7242 143.208 34.9354 139.419C31.1466 135.631 29.2522 131.076 29.2522 125.756V106.409C29.2522 103.668 30.1792 101.37 32.0333 99.5163C33.8874 97.6622 36.1849 96.7351 38.9257 96.7351H106.64V76.4208C94.0647 74.1636 83.3432 68.4804 74.4758 59.3712C65.6085 50.262 60.3686 39.339 58.7564 26.6022C58.4339 24.6675 58.9982 22.9746 60.4493 21.5236C61.9003 20.0726 63.5931 19.5083 65.5278 19.8307Z" fill="#297c3b"/>
</g>
</svg>
